# MagicaVoxel @ Ephtracy

# material
mtllib Menu_Boy.mtl
usemtl palette

# normals
vn -1 0 0
vn 1 0 0
vn 0 0 1
vn 0 0 -1
vn 0 -1 0
vn 0 1 0

# texcoords
vt 0.0136719 0.5
vt 0.0253906 0.5
vt 0.0292969 0.5
vt 0.0488281 0.5
vt 0.845703 0.5
vt 0.994141 0.5

# verts
v -2 14 1
v -2 14 -0
v -2 14 -1
v -2 14 -2
v -2 15 2
v -2 15 1
v -2 15 -0
v -2 15 -1
v -2 15 -2
v -2 15 -3
v -2 16 -0
v -2 16 -1
v -2 17 2
v -2 17 1
v -2 17 -2
v -2 17 -3
v -2 18 1
v -2 18 -2
v -1 8 -0
v -1 8 -1
v -1 9 -0
v -1 9 -1
v -1 11 -0
v -1 11 -1
v -1 13 -1
v -1 13 -2
v -1 14 -0
v -1 14 -1
v -1 14 -2
v -1 14 -3
v -1 15 -0
v -1 15 -1
v -1 15 -2
v -1 15 -3
v -1 15 -4
v -1 16 3
v -1 16 2
v -1 17 3
v -1 17 2
v -1 17 1
v -1 17 -2
v -1 17 -3
v -1 17 -4
v -1 18 2
v -1 18 1
v -1 18 -2
v -1 18 -3
v -1 19 1
v -1 19 -2
v 1 8 -0
v 1 8 -1
v 1 9 -0
v 1 9 -1
v 1 10 -0
v 1 10 -1
v 2 15 2
v 2 15 1
v 2 16 2
v 2 16 1
v -1 15 2
v -1 15 1
v -1 16 2
v -1 16 1
v 0 8 -0
v 0 8 -1
v 0 9 -0
v 0 9 -1
v 0 10 -0
v 0 10 -1
v 2 8 -0
v 2 8 -1
v 2 9 -0
v 2 9 -1
v 2 11 -0
v 2 11 -1
v 2 13 -1
v 2 13 -2
v 2 14 -0
v 2 14 -1
v 2 14 -2
v 2 14 -3
v 2 15 -0
v 2 15 -1
v 2 15 -2
v 2 15 -3
v 2 15 -4
v 2 16 3
v 2 16 2
v 2 17 3
v 2 17 2
v 2 17 1
v 2 17 -2
v 2 17 -3
v 2 17 -4
v 2 18 2
v 2 18 1
v 2 18 -2
v 2 18 -3
v 2 19 1
v 2 19 -2
v 3 11 -0
v 3 11 -1
v 3 12 -0
v 3 12 -1
v 3 14 1
v 3 14 -0
v 3 14 -1
v 3 14 -2
v 3 15 2
v 3 15 1
v 3 15 -0
v 3 15 -1
v 3 15 -2
v 3 15 -3
v 3 16 -0
v 3 16 -1
v 3 17 2
v 3 17 1
v 3 17 -2
v 3 17 -3
v 3 18 1
v 3 18 -2
v -1 16 3
v -1 17 3
v 2 16 3
v 2 17 3
v -2 15 2
v -2 17 2
v -1 15 2
v -1 16 2
v -1 17 2
v -1 18 2
v 2 15 2
v 2 16 2
v 2 17 2
v 2 18 2
v 3 15 2
v 3 17 2
v -2 14 1
v -2 15 1
v -2 17 1
v -2 18 1
v -1 14 1
v -1 15 1
v -1 16 1
v -1 17 1
v -1 18 1
v -1 19 1
v 0 15 1
v 0 16 1
v 1 14 1
v 1 15 1
v 1 16 1
v 2 14 1
v 2 15 1
v 2 16 1
v 2 17 1
v 2 18 1
v 2 19 1
v 3 14 1
v 3 15 1
v 3 17 1
v 3 18 1
v -1 8 -0
v -1 9 -0
v -1 11 -0
v -1 14 -0
v 0 8 -0
v 0 9 -0
v 0 10 -0
v 1 8 -0
v 1 9 -0
v 1 10 -0
v 1 14 -0
v 2 8 -0
v 2 9 -0
v 2 11 -0
v 2 12 -0
v 2 14 -0
v 3 11 -0
v 3 12 -0
v 3 14 -0
v -2 14 -1
v -2 15 -1
v -1 14 -1
v -1 15 -1
v 2 14 -1
v 2 15 -1
v 3 14 -1
v 3 15 -1
v -2 14 -0
v -2 15 -0
v -1 14 -0
v -1 15 -0
v 2 14 -0
v 2 15 -0
v 3 14 -0
v 3 15 -0
v -1 8 -1
v -1 9 -1
v -1 11 -1
v -1 13 -1
v 0 8 -1
v 0 9 -1
v 0 10 -1
v 1 8 -1
v 1 9 -1
v 1 10 -1
v 2 8 -1
v 2 9 -1
v 2 11 -1
v 2 12 -1
v 2 13 -1
v 2 14 -1
v 3 11 -1
v 3 12 -1
v 3 14 -1
v -2 14 -2
v -2 15 -2
v -2 17 -2
v -2 18 -2
v -1 13 -2
v -1 14 -2
v -1 15 -2
v -1 17 -2
v -1 18 -2
v -1 19 -2
v 2 13 -2
v 2 14 -2
v 2 15 -2
v 2 17 -2
v 2 18 -2
v 2 19 -2
v 3 14 -2
v 3 15 -2
v 3 17 -2
v 3 18 -2
v -2 15 -3
v -2 17 -3
v -1 14 -3
v -1 15 -3
v -1 17 -3
v -1 18 -3
v 2 14 -3
v 2 15 -3
v 2 17 -3
v 2 18 -3
v 3 15 -3
v 3 17 -3
v -1 15 -4
v -1 17 -4
v 2 15 -4
v 2 17 -4
v -1 8 -0
v 0 8 -0
v 1 8 -0
v 2 8 -0
v -1 8 -1
v 0 8 -1
v 1 8 -1
v 2 8 -1
v 0 10 -0
v 1 10 -0
v 0 10 -1
v 1 10 -1
v 2 11 -0
v 3 11 -0
v 2 11 -1
v 3 11 -1
v -1 13 -1
v 2 13 -1
v -1 13 -2
v 2 13 -2
v -2 14 1
v -1 14 1
v 1 14 1
v 2 14 1
v 3 14 1
v -2 14 -0
v -1 14 -0
v 1 14 -0
v 2 14 -0
v 3 14 -0
v -2 14 -1
v -1 14 -1
v 2 14 -1
v 3 14 -1
v -2 14 -2
v -1 14 -2
v 2 14 -2
v 3 14 -2
v -1 14 -3
v 2 14 -3
v -2 15 2
v -1 15 2
v 2 15 2
v 3 15 2
v -2 15 1
v -1 15 1
v 2 15 1
v 3 15 1
v -2 15 -0
v -1 15 -0
v 2 15 -0
v 3 15 -0
v -2 15 -1
v -1 15 -1
v 2 15 -1
v 3 15 -1
v -2 15 -2
v -1 15 -2
v 2 15 -2
v 3 15 -2
v -2 15 -3
v -1 15 -3
v 2 15 -3
v 3 15 -3
v -1 15 -4
v 2 15 -4
v -1 16 3
v 2 16 3
v -1 16 2
v 2 16 2
v -1 16 1
v 0 16 1
v 1 16 1
v 2 16 1
v 2 14 -0
v 3 14 -0
v 2 14 -1
v 3 14 -1
v -1 17 3
v 2 17 3
v -2 17 2
v -1 17 2
v 2 17 2
v 3 17 2
v -2 17 1
v -1 17 1
v 2 17 1
v 3 17 1
v -2 17 -2
v -1 17 -2
v 2 17 -2
v 3 17 -2
v -2 17 -3
v -1 17 -3
v 2 17 -3
v 3 17 -3
v -1 17 -4
v 2 17 -4
v -1 18 2
v 2 18 2
v -2 18 1
v -1 18 1
v 2 18 1
v 3 18 1
v -2 18 -2
v -1 18 -2
v 2 18 -2
v 3 18 -2
v -1 18 -3
v 2 18 -3
v -1 19 1
v 2 19 1
v -1 19 -2
v 2 19 -2

# faces
f 6/6/1 2/6/1 1/6/1
f 7/6/1 2/6/1 6/6/1
f 8/6/1 4/6/1 3/6/1
f 9/6/1 4/6/1 8/6/1
f 11/6/1 7/6/1 6/6/1
f 11/6/1 6/6/1 5/6/1
f 11/4/1 8/4/1 7/4/1
f 12/6/1 10/6/1 9/6/1
f 12/4/1 8/4/1 11/4/1
f 12/6/1 9/6/1 8/6/1
f 13/6/1 11/6/1 5/6/1
f 13/6/1 12/6/1 11/6/1
f 14/6/1 12/6/1 13/6/1
f 15/6/1 10/6/1 12/6/1
f 15/6/1 12/6/1 14/6/1
f 16/6/1 10/6/1 15/6/1
f 17/6/1 15/6/1 14/6/1
f 18/6/1 15/6/1 17/6/1
f 21/2/1 20/2/1 19/2/1
f 22/2/1 20/2/1 21/2/1
f 23/5/1 22/5/1 21/5/1
f 24/5/1 22/5/1 23/5/1
f 25/1/1 24/1/1 23/1/1
f 27/1/1 25/1/1 23/1/1
f 28/6/1 26/6/1 25/6/1
f 28/1/1 25/1/1 27/1/1
f 29/6/1 26/6/1 28/6/1
f 31/2/1 28/2/1 27/2/1
f 32/2/1 28/2/1 31/2/1
f 33/6/1 30/6/1 29/6/1
f 34/6/1 30/6/1 33/6/1
f 38/6/1 37/6/1 36/6/1
f 39/6/1 37/6/1 38/6/1
f 42/6/1 35/6/1 34/6/1
f 43/6/1 35/6/1 42/6/1
f 44/6/1 40/6/1 39/6/1
f 45/6/1 40/6/1 44/6/1
f 46/6/1 42/6/1 41/6/1
f 47/6/1 42/6/1 46/6/1
f 48/6/1 46/6/1 45/6/1
f 49/6/1 46/6/1 48/6/1
f 52/2/1 51/2/1 50/2/1
f 53/2/1 51/2/1 52/2/1
f 54/5/1 53/5/1 52/5/1
f 55/5/1 53/5/1 54/5/1
f 58/6/1 57/6/1 56/6/1
f 59/6/1 57/6/1 58/6/1
f 60/6/2 61/6/2 62/6/2
f 62/6/2 61/6/2 63/6/2
f 64/2/2 65/2/2 66/2/2
f 66/2/2 65/2/2 67/2/2
f 66/5/2 67/5/2 68/5/2
f 68/5/2 67/5/2 69/5/2
f 70/2/2 71/2/2 72/2/2
f 72/2/2 71/2/2 73/2/2
f 72/5/2 73/5/2 74/5/2
f 74/5/2 73/5/2 75/5/2
f 76/6/2 77/6/2 79/6/2
f 79/6/2 77/6/2 80/6/2
f 78/2/2 79/2/2 82/2/2
f 82/2/2 79/2/2 83/2/2
f 80/6/2 81/6/2 84/6/2
f 84/6/2 81/6/2 85/6/2
f 87/6/2 88/6/2 89/6/2
f 89/6/2 88/6/2 90/6/2
f 85/6/2 86/6/2 93/6/2
f 93/6/2 86/6/2 94/6/2
f 90/6/2 91/6/2 95/6/2
f 95/6/2 91/6/2 96/6/2
f 92/6/2 93/6/2 97/6/2
f 97/6/2 93/6/2 98/6/2
f 96/6/2 97/6/2 99/6/2
f 99/6/2 97/6/2 100/6/2
f 101/2/2 102/2/2 103/2/2
f 103/2/2 102/2/2 104/2/2
f 103/1/2 104/1/2 106/1/2
f 106/1/2 104/1/2 107/1/2
f 105/6/2 106/6/2 110/6/2
f 110/6/2 106/6/2 111/6/2
f 107/6/2 108/6/2 112/6/2
f 112/6/2 108/6/2 113/6/2
f 110/6/2 111/6/2 115/6/2
f 109/6/2 110/6/2 115/6/2
f 111/4/2 112/4/2 115/4/2
f 113/6/2 114/6/2 116/6/2
f 115/4/2 112/4/2 116/4/2
f 112/6/2 113/6/2 116/6/2
f 109/6/2 115/6/2 117/6/2
f 115/6/2 116/6/2 117/6/2
f 117/6/2 116/6/2 118/6/2
f 116/6/2 114/6/2 119/6/2
f 118/6/2 116/6/2 119/6/2
f 119/6/2 114/6/2 120/6/2
f 118/6/2 119/6/2 121/6/2
f 121/6/2 119/6/2 122/6/2
f 125/6/3 124/6/3 123/6/3
f 126/6/3 124/6/3 125/6/3
f 129/6/3 128/6/3 127/6/3
f 130/6/3 128/6/3 129/6/3
f 131/6/3 128/6/3 130/6/3
f 135/6/3 132/6/3 131/6/3
f 136/6/3 132/6/3 135/6/3
f 137/6/3 134/6/3 133/6/3
f 137/6/3 135/6/3 134/6/3
f 138/6/3 135/6/3 137/6/3
f 143/6/3 140/6/3 139/6/3
f 144/6/3 140/6/3 143/6/3
f 146/6/3 142/6/3 141/6/3
f 147/6/3 142/6/3 146/6/3
f 149/3/3 145/3/3 144/3/3
f 149/3/3 144/3/3 143/3/3
f 150/3/3 145/3/3 149/3/3
f 151/3/3 149/3/3 143/3/3
f 152/2/3 150/2/3 149/2/3
f 152/3/3 149/3/3 151/3/3
f 153/2/3 150/2/3 152/2/3
f 154/2/3 152/2/3 151/2/3
f 155/3/3 153/3/3 152/3/3
f 155/2/3 152/2/3 154/2/3
f 156/3/3 153/3/3 155/3/3
f 158/6/3 148/6/3 147/6/3
f 159/6/3 148/6/3 158/6/3
f 160/6/3 155/6/3 154/6/3
f 161/6/3 155/6/3 160/6/3
f 162/6/3 158/6/3 157/6/3
f 163/6/3 158/6/3 162/6/3
f 168/2/3 165/2/3 164/2/3
f 169/5/3 166/5/3 165/5/3
f 169/2/3 165/2/3 168/2/3
f 170/5/3 166/5/3 169/5/3
f 173/5/3 166/5/3 170/5/3
f 174/1/3 167/1/3 166/1/3
f 175/2/3 172/2/3 171/2/3
f 176/5/3 173/5/3 172/5/3
f 176/2/3 172/2/3 175/2/3
f 177/5/3 166/5/3 173/5/3
f 177/5/3 173/5/3 176/5/3
f 177/1/3 174/1/3 166/1/3
f 178/1/3 174/1/3 177/1/3
f 179/1/3 174/1/3 178/1/3
f 180/2/3 178/2/3 177/2/3
f 181/1/3 179/1/3 178/1/3
f 181/2/3 178/2/3 180/2/3
f 182/1/3 179/1/3 181/1/3
f 185/6/3 184/6/3 183/6/3
f 186/6/3 184/6/3 185/6/3
f 189/6/3 188/6/3 187/6/3
f 190/6/3 188/6/3 189/6/3
f 191/6/4 192/6/4 193/6/4
f 193/6/4 192/6/4 194/6/4
f 195/6/4 196/6/4 197/6/4
f 197/6/4 196/6/4 198/6/4
f 199/2/4 200/2/4 203/2/4
f 200/5/4 201/5/4 204/5/4
f 203/2/4 200/2/4 204/2/4
f 204/5/4 201/5/4 205/5/4
f 205/5/4 201/5/4 208/5/4
f 206/2/4 207/2/4 209/2/4
f 207/5/4 208/5/4 210/5/4
f 209/2/4 207/2/4 210/2/4
f 201/1/4 202/1/4 211/1/4
f 210/5/4 208/5/4 211/5/4
f 208/5/4 201/5/4 211/5/4
f 211/1/4 202/1/4 212/1/4
f 212/1/4 202/1/4 213/1/4
f 211/2/4 212/2/4 215/2/4
f 213/1/4 214/1/4 216/1/4
f 215/2/4 212/2/4 216/2/4
f 212/1/4 213/1/4 216/1/4
f 216/1/4 214/1/4 217/1/4
f 218/6/4 219/6/4 223/6/4
f 223/6/4 219/6/4 224/6/4
f 220/6/4 221/6/4 225/6/4
f 225/6/4 221/6/4 226/6/4
f 222/6/4 223/6/4 228/6/4
f 228/6/4 223/6/4 229/6/4
f 226/6/4 227/6/4 232/6/4
f 232/6/4 227/6/4 233/6/4
f 229/6/4 230/6/4 234/6/4
f 234/6/4 230/6/4 235/6/4
f 231/6/4 232/6/4 236/6/4
f 236/6/4 232/6/4 237/6/4
f 238/6/4 239/6/4 241/6/4
f 241/6/4 239/6/4 242/6/4
f 240/6/4 241/6/4 244/6/4
f 244/6/4 241/6/4 245/6/4
f 242/6/4 243/6/4 246/6/4
f 246/6/4 243/6/4 247/6/4
f 245/6/4 246/6/4 248/6/4
f 248/6/4 246/6/4 249/6/4
f 250/6/4 251/6/4 252/6/4
f 252/6/4 251/6/4 253/6/4
f 258/2/5 255/2/5 254/2/5
f 259/2/5 255/2/5 258/2/5
f 260/2/5 257/2/5 256/2/5
f 261/2/5 257/2/5 260/2/5
f 264/5/5 263/5/5 262/5/5
f 265/5/5 263/5/5 264/5/5
f 268/2/5 267/2/5 266/2/5
f 269/2/5 267/2/5 268/2/5
f 272/6/5 271/6/5 270/6/5
f 273/6/5 271/6/5 272/6/5
f 279/6/5 275/6/5 274/6/5
f 280/3/5 276/3/5 275/3/5
f 280/6/5 275/6/5 279/6/5
f 281/2/5 277/2/5 276/2/5
f 281/3/5 276/3/5 280/3/5
f 282/6/5 278/6/5 277/6/5
f 282/2/5 277/2/5 281/2/5
f 283/6/5 278/6/5 282/6/5
f 288/6/5 285/6/5 284/6/5
f 289/6/5 285/6/5 288/6/5
f 290/6/5 287/6/5 286/6/5
f 291/6/5 287/6/5 290/6/5
f 292/6/5 290/6/5 289/6/5
f 293/6/5 290/6/5 292/6/5
f 298/6/5 295/6/5 294/6/5
f 299/6/5 295/6/5 298/6/5
f 300/6/5 297/6/5 296/6/5
f 301/6/5 297/6/5 300/6/5
f 306/4/5 303/4/5 302/4/5
f 307/4/5 303/4/5 306/4/5
f 308/4/5 305/4/5 304/4/5
f 309/4/5 305/4/5 308/4/5
f 314/6/5 311/6/5 310/6/5
f 315/6/5 311/6/5 314/6/5
f 316/6/5 313/6/5 312/6/5
f 317/6/5 313/6/5 316/6/5
f 318/6/5 316/6/5 315/6/5
f 319/6/5 316/6/5 318/6/5
f 322/6/5 321/6/5 320/6/5
f 323/6/5 321/6/5 322/6/5
f 324/6/5 323/6/5 322/6/5
f 325/6/5 323/6/5 324/6/5
f 326/6/5 323/6/5 325/6/5
f 327/6/5 323/6/5 326/6/5
f 328/1/6 329/1/6 330/1/6
f 330/1/6 329/1/6 331/1/6
f 332/6/6 333/6/6 335/6/6
f 335/6/6 333/6/6 336/6/6
f 334/6/6 335/6/6 338/6/6
f 338/6/6 335/6/6 339/6/6
f 336/6/6 337/6/6 340/6/6
f 340/6/6 337/6/6 341/6/6
f 342/6/6 343/6/6 346/6/6
f 346/6/6 343/6/6 347/6/6
f 344/6/6 345/6/6 348/6/6
f 348/6/6 345/6/6 349/6/6
f 347/6/6 348/6/6 350/6/6
f 350/6/6 348/6/6 351/6/6
f 352/6/6 353/6/6 355/6/6
f 355/6/6 353/6/6 356/6/6
f 354/6/6 355/6/6 358/6/6
f 358/6/6 355/6/6 359/6/6
f 356/6/6 357/6/6 360/6/6
f 360/6/6 357/6/6 361/6/6
f 359/6/6 360/6/6 362/6/6
f 362/6/6 360/6/6 363/6/6
f 364/6/6 365/6/6 366/6/6
f 366/6/6 365/6/6 367/6/6
