# MagicaVoxel @ Ephtracy

# material
mtllib Tile.mtl
usemtl palette

# normals
vn -1 0 0
vn 1 0 0
vn 0 0 1
vn 0 0 -1
vn 0 -1 0
vn 0 1 0

# texcoords
vt 0.962891 0.5
vt 0.966797 0.5
vt 0.982422 0.5

# verts
v -35 0 25
v -35 0 -35
v -35 1 16
v -35 1 15
v -35 1 11
v -35 1 10
v -35 1 5
v -35 1 4
v -35 1 -4
v -35 1 -5
v -35 1 -9
v -35 1 -10
v -35 1 -15
v -35 1 -16
v -35 1 -24
v -35 1 -25
v -35 1 -29
v -35 1 -30
v -35 2 25
v -35 2 16
v -35 2 15
v -35 2 11
v -35 2 10
v -35 2 5
v -35 2 4
v -35 2 -4
v -35 2 -5
v -35 2 -9
v -35 2 -10
v -35 2 -15
v -35 2 -16
v -35 2 -24
v -35 2 -25
v -35 2 -29
v -35 2 -30
v -35 2 -35
v 34 0 25
v 34 0 -35
v 34 1 21
v 34 1 20
v 34 1 16
v 34 1 15
v 34 1 5
v 34 1 4
v 34 1 1
v 34 1 -0
v 34 1 -4
v 34 1 -5
v 34 1 -15
v 34 1 -16
v 34 1 -19
v 34 1 -20
v 34 1 -24
v 34 1 -25
v 34 2 25
v 34 2 21
v 34 2 20
v 34 2 16
v 34 2 15
v 34 2 5
v 34 2 4
v 34 2 1
v 34 2 -0
v 34 2 -4
v 34 2 -5
v 34 2 -15
v 34 2 -16
v 34 2 -19
v 34 2 -20
v 34 2 -24
v 34 2 -25
v 34 2 -35
v -35 0 25
v -35 2 25
v -34 0 25
v -34 1 25
v -30 1 25
v -30 2 25
v -29 1 25
v -29 2 25
v -24 1 25
v -24 2 25
v -23 1 25
v -23 2 25
v -13 0 25
v -13 1 25
v -13 2 25
v -12 1 25
v -12 2 25
v -11 0 25
v -11 1 25
v -7 1 25
v -7 2 25
v -6 1 25
v -6 2 25
v -1 1 25
v -1 2 25
v 0 1 25
v 0 2 25
v 10 0 25
v 10 1 25
v 10 2 25
v 11 1 25
v 11 2 25
v 12 0 25
v 12 1 25
v 16 1 25
v 16 2 25
v 17 1 25
v 17 2 25
v 22 1 25
v 22 2 25
v 23 1 25
v 23 2 25
v 33 0 25
v 33 1 25
v 34 0 25
v 34 2 25
v -35 0 -35
v -35 2 -35
v -34 0 -35
v -34 1 -35
v -24 1 -35
v -24 2 -35
v -23 1 -35
v -23 2 -35
v -18 1 -35
v -18 2 -35
v -17 1 -35
v -17 2 -35
v -13 0 -35
v -13 1 -35
v -13 2 -35
v -12 1 -35
v -12 2 -35
v -11 0 -35
v -11 1 -35
v -1 1 -35
v -1 2 -35
v 0 1 -35
v 0 2 -35
v 5 1 -35
v 5 2 -35
v 6 1 -35
v 6 2 -35
v 10 0 -35
v 10 1 -35
v 10 2 -35
v 11 1 -35
v 11 2 -35
v 12 0 -35
v 12 1 -35
v 22 1 -35
v 22 2 -35
v 23 1 -35
v 23 2 -35
v 28 1 -35
v 28 2 -35
v 29 1 -35
v 29 2 -35
v 33 0 -35
v 33 1 -35
v 34 0 -35
v 34 2 -35
v -35 0 25
v -34 0 25
v -13 0 25
v -11 0 25
v 10 0 25
v 12 0 25
v 33 0 25
v 34 0 25
v -35 0 -35
v -34 0 -35
v -13 0 -35
v -11 0 -35
v 10 0 -35
v 12 0 -35
v 33 0 -35
v 34 0 -35
v -35 2 25
v -30 2 25
v -29 2 25
v -24 2 25
v -23 2 25
v -13 2 25
v -12 2 25
v -7 2 25
v -6 2 25
v -1 2 25
v 0 2 25
v 10 2 25
v 11 2 25
v 16 2 25
v 17 2 25
v 22 2 25
v 23 2 25
v 34 2 25
v -23 2 21
v -13 2 21
v 0 2 21
v 10 2 21
v 23 2 21
v 34 2 21
v -23 2 20
v -13 2 20
v 0 2 20
v 10 2 20
v 23 2 20
v 34 2 20
v -35 2 16
v -30 2 16
v -29 2 16
v -24 2 16
v -23 2 16
v -13 2 16
v -12 2 16
v -7 2 16
v -6 2 16
v -1 2 16
v 0 2 16
v 10 2 16
v 11 2 16
v 16 2 16
v 17 2 16
v 22 2 16
v 23 2 16
v 34 2 16
v -35 2 15
v -24 2 15
v -23 2 15
v -18 2 15
v -17 2 15
v -13 2 15
v -12 2 15
v -1 2 15
v 0 2 15
v 5 2 15
v 6 2 15
v 10 2 15
v 11 2 15
v 22 2 15
v 23 2 15
v 28 2 15
v 29 2 15
v 34 2 15
v -35 2 11
v -24 2 11
v -12 2 11
v -1 2 11
v 11 2 11
v 22 2 11
v -35 2 10
v -24 2 10
v -12 2 10
v -1 2 10
v 11 2 10
v 22 2 10
v -35 2 5
v -24 2 5
v -23 2 5
v -18 2 5
v -17 2 5
v -13 2 5
v -12 2 5
v -1 2 5
v 0 2 5
v 5 2 5
v 6 2 5
v 10 2 5
v 11 2 5
v 22 2 5
v 23 2 5
v 28 2 5
v 29 2 5
v 34 2 5
v -35 2 4
v -30 2 4
v -29 2 4
v -24 2 4
v -23 2 4
v -13 2 4
v -12 2 4
v -7 2 4
v -6 2 4
v -1 2 4
v 0 2 4
v 10 2 4
v 11 2 4
v 16 2 4
v 17 2 4
v 22 2 4
v 23 2 4
v 34 2 4
v -23 2 1
v -13 2 1
v 0 2 1
v 10 2 1
v 23 2 1
v 34 2 1
v -23 2 -0
v -13 2 -0
v 0 2 -0
v 10 2 -0
v 23 2 -0
v 34 2 -0
v -35 2 -4
v -30 2 -4
v -29 2 -4
v -24 2 -4
v -23 2 -4
v -13 2 -4
v -12 2 -4
v -7 2 -4
v -6 2 -4
v -1 2 -4
v 0 2 -4
v 10 2 -4
v 11 2 -4
v 16 2 -4
v 17 2 -4
v 22 2 -4
v 23 2 -4
v 34 2 -4
v -35 2 -5
v -24 2 -5
v -23 2 -5
v -18 2 -5
v -17 2 -5
v -13 2 -5
v -12 2 -5
v -1 2 -5
v 0 2 -5
v 5 2 -5
v 6 2 -5
v 10 2 -5
v 11 2 -5
v 22 2 -5
v 23 2 -5
v 28 2 -5
v 29 2 -5
v 34 2 -5
v -35 2 -9
v -24 2 -9
v -12 2 -9
v -1 2 -9
v 11 2 -9
v 22 2 -9
v -35 2 -10
v -24 2 -10
v -12 2 -10
v -1 2 -10
v 11 2 -10
v 22 2 -10
v -35 2 -15
v -24 2 -15
v -23 2 -15
v -18 2 -15
v -17 2 -15
v -13 2 -15
v -12 2 -15
v -1 2 -15
v 0 2 -15
v 5 2 -15
v 6 2 -15
v 10 2 -15
v 11 2 -15
v 22 2 -15
v 23 2 -15
v 28 2 -15
v 29 2 -15
v 34 2 -15
v -35 2 -16
v -30 2 -16
v -29 2 -16
v -24 2 -16
v -23 2 -16
v -13 2 -16
v -12 2 -16
v -7 2 -16
v -6 2 -16
v -1 2 -16
v 0 2 -16
v 10 2 -16
v 11 2 -16
v 16 2 -16
v 17 2 -16
v 22 2 -16
v 23 2 -16
v 34 2 -16
v -23 2 -19
v -13 2 -19
v 0 2 -19
v 10 2 -19
v 23 2 -19
v 34 2 -19
v -23 2 -20
v -13 2 -20
v 0 2 -20
v 10 2 -20
v 23 2 -20
v 34 2 -20
v -35 2 -24
v -30 2 -24
v -29 2 -24
v -24 2 -24
v -23 2 -24
v -13 2 -24
v -12 2 -24
v -7 2 -24
v -6 2 -24
v -1 2 -24
v 0 2 -24
v 10 2 -24
v 11 2 -24
v 16 2 -24
v 17 2 -24
v 22 2 -24
v 23 2 -24
v 34 2 -24
v -35 2 -25
v -24 2 -25
v -23 2 -25
v -18 2 -25
v -17 2 -25
v -13 2 -25
v -12 2 -25
v -1 2 -25
v 0 2 -25
v 5 2 -25
v 6 2 -25
v 10 2 -25
v 11 2 -25
v 22 2 -25
v 23 2 -25
v 28 2 -25
v 29 2 -25
v 34 2 -25
v -35 2 -29
v -24 2 -29
v -12 2 -29
v -1 2 -29
v 11 2 -29
v 22 2 -29
v -35 2 -30
v -24 2 -30
v -12 2 -30
v -1 2 -30
v 11 2 -30
v 22 2 -30
v -35 2 -35
v -24 2 -35
v -23 2 -35
v -18 2 -35
v -17 2 -35
v -13 2 -35
v -12 2 -35
v -1 2 -35
v 0 2 -35
v 5 2 -35
v 6 2 -35
v 10 2 -35
v 11 2 -35
v 22 2 -35
v 23 2 -35
v 28 2 -35
v 29 2 -35
v 34 2 -35

# faces
f 3/1/1 2/1/1 1/1/1
f 4/1/1 2/1/1 3/1/1
f 5/1/1 2/1/1 4/1/1
f 6/1/1 2/1/1 5/1/1
f 7/1/1 2/1/1 6/1/1
f 8/1/1 2/1/1 7/1/1
f 9/1/1 2/1/1 8/1/1
f 10/1/1 2/1/1 9/1/1
f 11/1/1 2/1/1 10/1/1
f 12/1/1 2/1/1 11/1/1
f 13/1/1 2/1/1 12/1/1
f 14/1/1 2/1/1 13/1/1
f 15/1/1 2/1/1 14/1/1
f 16/1/1 2/1/1 15/1/1
f 17/1/1 2/1/1 16/1/1
f 18/1/1 2/1/1 17/1/1
f 19/1/1 3/1/1 1/1/1
f 20/2/1 4/2/1 3/2/1
f 20/1/1 3/1/1 19/1/1
f 21/1/1 5/1/1 4/1/1
f 21/2/1 4/2/1 20/2/1
f 22/2/1 6/2/1 5/2/1
f 22/1/1 5/1/1 21/1/1
f 23/1/1 7/1/1 6/1/1
f 23/2/1 6/2/1 22/2/1
f 24/3/1 8/3/1 7/3/1
f 24/1/1 7/1/1 23/1/1
f 25/1/1 9/1/1 8/1/1
f 25/3/1 8/3/1 24/3/1
f 26/2/1 10/2/1 9/2/1
f 26/1/1 9/1/1 25/1/1
f 27/1/1 11/1/1 10/1/1
f 27/2/1 10/2/1 26/2/1
f 28/2/1 12/2/1 11/2/1
f 28/1/1 11/1/1 27/1/1
f 29/1/1 13/1/1 12/1/1
f 29/2/1 12/2/1 28/2/1
f 30/3/1 14/3/1 13/3/1
f 30/1/1 13/1/1 29/1/1
f 31/1/1 15/1/1 14/1/1
f 31/3/1 14/3/1 30/3/1
f 32/2/1 16/2/1 15/2/1
f 32/1/1 15/1/1 31/1/1
f 33/1/1 17/1/1 16/1/1
f 33/2/1 16/2/1 32/2/1
f 34/2/1 18/2/1 17/2/1
f 34/1/1 17/1/1 33/1/1
f 35/1/1 2/1/1 18/1/1
f 35/2/1 18/2/1 34/2/1
f 36/1/1 2/1/1 35/1/1
f 37/1/2 38/1/2 39/1/2
f 39/1/2 38/1/2 40/1/2
f 40/1/2 38/1/2 41/1/2
f 41/1/2 38/1/2 42/1/2
f 42/1/2 38/1/2 43/1/2
f 43/1/2 38/1/2 44/1/2
f 44/1/2 38/1/2 45/1/2
f 45/1/2 38/1/2 46/1/2
f 46/1/2 38/1/2 47/1/2
f 47/1/2 38/1/2 48/1/2
f 48/1/2 38/1/2 49/1/2
f 49/1/2 38/1/2 50/1/2
f 50/1/2 38/1/2 51/1/2
f 51/1/2 38/1/2 52/1/2
f 52/1/2 38/1/2 53/1/2
f 53/1/2 38/1/2 54/1/2
f 37/1/2 39/1/2 55/1/2
f 39/2/2 40/2/2 56/2/2
f 55/1/2 39/1/2 56/1/2
f 40/1/2 41/1/2 57/1/2
f 56/2/2 40/2/2 57/2/2
f 41/2/2 42/2/2 58/2/2
f 57/1/2 41/1/2 58/1/2
f 42/1/2 43/1/2 59/1/2
f 58/2/2 42/2/2 59/2/2
f 43/3/2 44/3/2 60/3/2
f 59/1/2 43/1/2 60/1/2
f 44/1/2 45/1/2 61/1/2
f 60/3/2 44/3/2 61/3/2
f 45/2/2 46/2/2 62/2/2
f 61/1/2 45/1/2 62/1/2
f 46/1/2 47/1/2 63/1/2
f 62/2/2 46/2/2 63/2/2
f 47/2/2 48/2/2 64/2/2
f 63/1/2 47/1/2 64/1/2
f 48/1/2 49/1/2 65/1/2
f 64/2/2 48/2/2 65/2/2
f 49/3/2 50/3/2 66/3/2
f 65/1/2 49/1/2 66/1/2
f 50/1/2 51/1/2 67/1/2
f 66/3/2 50/3/2 67/3/2
f 51/2/2 52/2/2 68/2/2
f 67/1/2 51/1/2 68/1/2
f 52/1/2 53/1/2 69/1/2
f 68/2/2 52/2/2 69/2/2
f 53/2/2 54/2/2 70/2/2
f 69/1/2 53/1/2 70/1/2
f 54/1/2 38/1/2 71/1/2
f 70/2/2 54/2/2 71/2/2
f 71/1/2 38/1/2 72/1/2
f 75/1/3 74/1/3 73/1/3
f 76/1/3 74/1/3 75/1/3
f 77/2/3 76/2/3 75/2/3
f 77/1/3 74/1/3 76/1/3
f 78/1/3 74/1/3 77/1/3
f 79/2/3 77/2/3 75/2/3
f 79/2/3 78/2/3 77/2/3
f 80/2/3 78/2/3 79/2/3
f 81/2/3 79/2/3 75/2/3
f 81/1/3 80/1/3 79/1/3
f 82/1/3 80/1/3 81/1/3
f 83/2/3 81/2/3 75/2/3
f 83/2/3 82/2/3 81/2/3
f 84/2/3 82/2/3 83/2/3
f 85/2/3 83/2/3 75/2/3
f 86/1/3 84/1/3 83/1/3
f 86/2/3 83/2/3 85/2/3
f 87/1/3 84/1/3 86/1/3
f 88/1/3 86/1/3 85/1/3
f 88/3/3 87/3/3 86/3/3
f 89/3/3 87/3/3 88/3/3
f 90/1/3 88/1/3 85/1/3
f 90/1/3 89/1/3 88/1/3
f 91/1/3 89/1/3 90/1/3
f 92/2/3 91/2/3 90/2/3
f 92/1/3 89/1/3 91/1/3
f 93/1/3 89/1/3 92/1/3
f 94/2/3 92/2/3 90/2/3
f 94/2/3 93/2/3 92/2/3
f 95/2/3 93/2/3 94/2/3
f 96/2/3 94/2/3 90/2/3
f 96/1/3 95/1/3 94/1/3
f 97/1/3 95/1/3 96/1/3
f 98/2/3 96/2/3 90/2/3
f 98/2/3 97/2/3 96/2/3
f 99/2/3 97/2/3 98/2/3
f 100/2/3 98/2/3 90/2/3
f 101/1/3 99/1/3 98/1/3
f 101/2/3 98/2/3 100/2/3
f 102/1/3 99/1/3 101/1/3
f 103/1/3 101/1/3 100/1/3
f 103/3/3 102/3/3 101/3/3
f 104/3/3 102/3/3 103/3/3
f 105/1/3 103/1/3 100/1/3
f 105/1/3 104/1/3 103/1/3
f 106/1/3 104/1/3 105/1/3
f 107/2/3 106/2/3 105/2/3
f 107/1/3 104/1/3 106/1/3
f 108/1/3 104/1/3 107/1/3
f 109/2/3 107/2/3 105/2/3
f 109/2/3 108/2/3 107/2/3
f 110/2/3 108/2/3 109/2/3
f 111/2/3 109/2/3 105/2/3
f 111/1/3 110/1/3 109/1/3
f 112/1/3 110/1/3 111/1/3
f 113/2/3 111/2/3 105/2/3
f 113/2/3 112/2/3 111/2/3
f 114/2/3 112/2/3 113/2/3
f 115/2/3 113/2/3 105/2/3
f 116/1/3 114/1/3 113/1/3
f 116/2/3 113/2/3 115/2/3
f 117/1/3 116/1/3 115/1/3
f 118/1/3 114/1/3 116/1/3
f 118/1/3 116/1/3 117/1/3
f 119/1/4 120/1/4 121/1/4
f 121/1/4 120/1/4 122/1/4
f 121/2/4 122/2/4 123/2/4
f 122/1/4 120/1/4 123/1/4
f 123/1/4 120/1/4 124/1/4
f 121/2/4 123/2/4 125/2/4
f 123/2/4 124/2/4 125/2/4
f 125/2/4 124/2/4 126/2/4
f 121/2/4 125/2/4 127/2/4
f 125/1/4 126/1/4 127/1/4
f 127/1/4 126/1/4 128/1/4
f 121/2/4 127/2/4 129/2/4
f 127/2/4 128/2/4 129/2/4
f 129/2/4 128/2/4 130/2/4
f 121/2/4 129/2/4 131/2/4
f 129/1/4 130/1/4 132/1/4
f 131/2/4 129/2/4 132/2/4
f 132/1/4 130/1/4 133/1/4
f 131/1/4 132/1/4 134/1/4
f 132/3/4 133/3/4 134/3/4
f 134/3/4 133/3/4 135/3/4
f 131/1/4 134/1/4 136/1/4
f 134/1/4 135/1/4 136/1/4
f 136/1/4 135/1/4 137/1/4
f 136/2/4 137/2/4 138/2/4
f 137/1/4 135/1/4 138/1/4
f 138/1/4 135/1/4 139/1/4
f 136/2/4 138/2/4 140/2/4
f 138/2/4 139/2/4 140/2/4
f 140/2/4 139/2/4 141/2/4
f 136/2/4 140/2/4 142/2/4
f 140/1/4 141/1/4 142/1/4
f 142/1/4 141/1/4 143/1/4
f 136/2/4 142/2/4 144/2/4
f 142/2/4 143/2/4 144/2/4
f 144/2/4 143/2/4 145/2/4
f 136/2/4 144/2/4 146/2/4
f 144/1/4 145/1/4 147/1/4
f 146/2/4 144/2/4 147/2/4
f 147/1/4 145/1/4 148/1/4
f 146/1/4 147/1/4 149/1/4
f 147/3/4 148/3/4 149/3/4
f 149/3/4 148/3/4 150/3/4
f 146/1/4 149/1/4 151/1/4
f 149/1/4 150/1/4 151/1/4
f 151/1/4 150/1/4 152/1/4
f 151/2/4 152/2/4 153/2/4
f 152/1/4 150/1/4 153/1/4
f 153/1/4 150/1/4 154/1/4
f 151/2/4 153/2/4 155/2/4
f 153/2/4 154/2/4 155/2/4
f 155/2/4 154/2/4 156/2/4
f 151/2/4 155/2/4 157/2/4
f 155/1/4 156/1/4 157/1/4
f 157/1/4 156/1/4 158/1/4
f 151/2/4 157/2/4 159/2/4
f 157/2/4 158/2/4 159/2/4
f 159/2/4 158/2/4 160/2/4
f 151/2/4 159/2/4 161/2/4
f 159/1/4 160/1/4 162/1/4
f 161/2/4 159/2/4 162/2/4
f 161/1/4 162/1/4 163/1/4
f 162/1/4 160/1/4 164/1/4
f 163/1/4 162/1/4 164/1/4
f 173/1/5 166/1/5 165/1/5
f 174/2/5 167/2/5 166/2/5
f 174/1/5 166/1/5 173/1/5
f 175/1/5 168/1/5 167/1/5
f 175/2/5 167/2/5 174/2/5
f 176/2/5 169/2/5 168/2/5
f 176/1/5 168/1/5 175/1/5
f 177/1/5 170/1/5 169/1/5
f 177/2/5 169/2/5 176/2/5
f 178/2/5 171/2/5 170/2/5
f 178/1/5 170/1/5 177/1/5
f 179/1/5 172/1/5 171/1/5
f 179/2/5 171/2/5 178/2/5
f 180/1/5 172/1/5 179/1/5
f 184/2/6 185/2/6 199/2/6
f 185/1/6 186/1/6 199/1/6
f 186/3/6 187/3/6 200/3/6
f 199/1/6 186/1/6 200/1/6
f 190/2/6 191/2/6 201/2/6
f 191/1/6 192/1/6 201/1/6
f 192/3/6 193/3/6 202/3/6
f 201/1/6 192/1/6 202/1/6
f 197/1/6 198/1/6 203/1/6
f 196/2/6 197/2/6 203/2/6
f 203/1/6 198/1/6 204/1/6
f 184/2/6 199/2/6 205/2/6
f 199/2/6 200/2/6 205/2/6
f 200/3/6 187/3/6 206/3/6
f 205/2/6 200/2/6 206/2/6
f 201/2/6 202/2/6 207/2/6
f 190/2/6 201/2/6 207/2/6
f 202/3/6 193/3/6 208/3/6
f 207/2/6 202/2/6 208/2/6
f 203/2/6 204/2/6 209/2/6
f 196/2/6 203/2/6 209/2/6
f 209/2/6 204/2/6 210/2/6
f 181/1/6 182/1/6 211/1/6
f 182/2/6 183/2/6 212/2/6
f 211/1/6 182/1/6 212/1/6
f 183/1/6 184/1/6 213/1/6
f 212/2/6 183/2/6 213/2/6
f 184/2/6 205/2/6 214/2/6
f 213/1/6 184/1/6 214/1/6
f 205/1/6 206/1/6 215/1/6
f 214/2/6 205/2/6 215/2/6
f 206/3/6 187/3/6 216/3/6
f 215/1/6 206/1/6 216/1/6
f 187/1/6 188/1/6 217/1/6
f 216/3/6 187/3/6 217/3/6
f 188/2/6 189/2/6 218/2/6
f 217/1/6 188/1/6 218/1/6
f 189/1/6 190/1/6 219/1/6
f 218/2/6 189/2/6 219/2/6
f 190/2/6 207/2/6 220/2/6
f 219/1/6 190/1/6 220/1/6
f 207/1/6 208/1/6 221/1/6
f 220/2/6 207/2/6 221/2/6
f 208/3/6 193/3/6 222/3/6
f 221/1/6 208/1/6 222/1/6
f 193/1/6 194/1/6 223/1/6
f 222/3/6 193/3/6 223/3/6
f 194/2/6 195/2/6 224/2/6
f 223/1/6 194/1/6 224/1/6
f 195/1/6 196/1/6 225/1/6
f 224/2/6 195/2/6 225/2/6
f 196/2/6 209/2/6 226/2/6
f 225/1/6 196/1/6 226/1/6
f 209/1/6 210/1/6 227/1/6
f 226/2/6 209/2/6 227/2/6
f 227/1/6 210/1/6 228/1/6
f 211/2/6 212/2/6 229/2/6
f 214/2/6 215/2/6 229/2/6
f 215/2/6 216/2/6 229/2/6
f 212/2/6 213/2/6 229/2/6
f 213/2/6 214/2/6 229/2/6
f 229/2/6 216/2/6 230/2/6
f 230/2/6 216/2/6 231/2/6
f 231/2/6 216/2/6 232/2/6
f 232/2/6 216/2/6 233/2/6
f 216/3/6 217/3/6 234/3/6
f 233/2/6 216/2/6 234/2/6
f 218/2/6 219/2/6 235/2/6
f 234/3/6 217/3/6 235/3/6
f 217/2/6 218/2/6 235/2/6
f 220/2/6 221/2/6 235/2/6
f 221/2/6 222/2/6 235/2/6
f 219/2/6 220/2/6 235/2/6
f 235/2/6 222/2/6 236/2/6
f 236/2/6 222/2/6 237/2/6
f 237/2/6 222/2/6 238/2/6
f 238/2/6 222/2/6 239/2/6
f 222/3/6 223/3/6 240/3/6
f 239/2/6 222/2/6 240/2/6
f 227/2/6 228/2/6 241/2/6
f 240/3/6 223/3/6 241/3/6
f 226/2/6 227/2/6 241/2/6
f 225/2/6 226/2/6 241/2/6
f 224/2/6 225/2/6 241/2/6
f 223/2/6 224/2/6 241/2/6
f 241/2/6 228/2/6 242/2/6
f 242/2/6 228/2/6 243/2/6
f 243/2/6 228/2/6 244/2/6
f 244/2/6 228/2/6 245/2/6
f 245/2/6 228/2/6 246/2/6
f 229/1/6 230/1/6 247/1/6
f 230/2/6 231/2/6 248/2/6
f 247/1/6 230/1/6 248/1/6
f 235/1/6 236/1/6 249/1/6
f 234/3/6 235/3/6 249/3/6
f 236/2/6 237/2/6 250/2/6
f 249/1/6 236/1/6 250/1/6
f 240/3/6 241/3/6 251/3/6
f 241/1/6 242/1/6 251/1/6
f 242/2/6 243/2/6 252/2/6
f 251/1/6 242/1/6 252/1/6
f 247/2/6 248/2/6 253/2/6
f 248/2/6 231/2/6 254/2/6
f 253/2/6 248/2/6 254/2/6
f 234/3/6 249/3/6 255/3/6
f 249/2/6 250/2/6 255/2/6
f 250/2/6 237/2/6 256/2/6
f 255/2/6 250/2/6 256/2/6
f 240/3/6 251/3/6 257/3/6
f 251/2/6 252/2/6 257/2/6
f 252/2/6 243/2/6 258/2/6
f 257/2/6 252/2/6 258/2/6
f 253/1/6 254/1/6 259/1/6
f 254/2/6 231/2/6 260/2/6
f 259/1/6 254/1/6 260/1/6
f 231/1/6 232/1/6 261/1/6
f 260/2/6 231/2/6 261/2/6
f 232/2/6 233/2/6 262/2/6
f 261/1/6 232/1/6 262/1/6
f 233/1/6 234/1/6 263/1/6
f 262/2/6 233/2/6 263/2/6
f 234/3/6 255/3/6 264/3/6
f 263/1/6 234/1/6 264/1/6
f 255/1/6 256/1/6 265/1/6
f 264/3/6 255/3/6 265/3/6
f 256/2/6 237/2/6 266/2/6
f 265/1/6 256/1/6 266/1/6
f 237/1/6 238/1/6 267/1/6
f 266/2/6 237/2/6 267/2/6
f 238/2/6 239/2/6 268/2/6
f 267/1/6 238/1/6 268/1/6
f 239/1/6 240/1/6 269/1/6
f 268/2/6 239/2/6 269/2/6
f 240/3/6 257/3/6 270/3/6
f 269/1/6 240/1/6 270/1/6
f 257/1/6 258/1/6 271/1/6
f 270/3/6 257/3/6 271/3/6
f 258/2/6 243/2/6 272/2/6
f 271/1/6 258/1/6 272/1/6
f 243/1/6 244/1/6 273/1/6
f 272/2/6 243/2/6 273/2/6
f 244/2/6 245/2/6 274/2/6
f 273/1/6 244/1/6 274/1/6
f 245/1/6 246/1/6 275/1/6
f 274/2/6 245/2/6 275/2/6
f 275/1/6 246/1/6 276/1/6
f 261/3/6 262/3/6 277/3/6
f 267/3/6 268/3/6 277/3/6
f 275/3/6 276/3/6 277/3/6
f 274/3/6 275/3/6 277/3/6
f 269/3/6 270/3/6 277/3/6
f 263/3/6 264/3/6 277/3/6
f 273/3/6 274/3/6 277/3/6
f 272/3/6 273/3/6 277/3/6
f 271/3/6 272/3/6 277/3/6
f 264/3/6 265/3/6 277/3/6
f 270/3/6 271/3/6 277/3/6
f 262/3/6 263/3/6 277/3/6
f 265/3/6 266/3/6 277/3/6
f 268/3/6 269/3/6 277/3/6
f 266/3/6 267/3/6 277/3/6
f 260/3/6 261/3/6 277/3/6
f 259/3/6 260/3/6 277/3/6
f 277/3/6 276/3/6 278/3/6
f 278/3/6 276/3/6 279/3/6
f 279/3/6 276/3/6 280/3/6
f 280/3/6 276/3/6 281/3/6
f 281/3/6 276/3/6 282/3/6
f 282/3/6 276/3/6 283/3/6
f 283/3/6 276/3/6 284/3/6
f 284/3/6 276/3/6 285/3/6
f 285/3/6 276/3/6 286/3/6
f 286/3/6 276/3/6 287/3/6
f 287/3/6 276/3/6 288/3/6
f 288/3/6 276/3/6 289/3/6
f 289/3/6 276/3/6 290/3/6
f 290/3/6 276/3/6 291/3/6
f 291/3/6 276/3/6 292/3/6
f 292/3/6 276/3/6 293/3/6
f 293/3/6 276/3/6 294/3/6
f 280/2/6 281/2/6 295/2/6
f 281/1/6 282/1/6 295/1/6
f 282/3/6 283/3/6 296/3/6
f 295/1/6 282/1/6 296/1/6
f 286/2/6 287/2/6 297/2/6
f 287/1/6 288/1/6 297/1/6
f 288/3/6 289/3/6 298/3/6
f 297/1/6 288/1/6 298/1/6
f 293/1/6 294/1/6 299/1/6
f 292/2/6 293/2/6 299/2/6
f 299/1/6 294/1/6 300/1/6
f 280/2/6 295/2/6 301/2/6
f 295/2/6 296/2/6 301/2/6
f 296/3/6 283/3/6 302/3/6
f 301/2/6 296/2/6 302/2/6
f 286/2/6 297/2/6 303/2/6
f 297/2/6 298/2/6 303/2/6
f 298/3/6 289/3/6 304/3/6
f 303/2/6 298/2/6 304/2/6
f 299/2/6 300/2/6 305/2/6
f 292/2/6 299/2/6 305/2/6
f 305/2/6 300/2/6 306/2/6
f 277/1/6 278/1/6 307/1/6
f 278/2/6 279/2/6 308/2/6
f 307/1/6 278/1/6 308/1/6
f 279/1/6 280/1/6 309/1/6
f 308/2/6 279/2/6 309/2/6
f 280/2/6 301/2/6 310/2/6
f 309/1/6 280/1/6 310/1/6
f 301/1/6 302/1/6 311/1/6
f 310/2/6 301/2/6 311/2/6
f 302/3/6 283/3/6 312/3/6
f 311/1/6 302/1/6 312/1/6
f 283/1/6 284/1/6 313/1/6
f 312/3/6 283/3/6 313/3/6
f 284/2/6 285/2/6 314/2/6
f 313/1/6 284/1/6 314/1/6
f 285/1/6 286/1/6 315/1/6
f 314/2/6 285/2/6 315/2/6
f 286/2/6 303/2/6 316/2/6
f 315/1/6 286/1/6 316/1/6
f 303/1/6 304/1/6 317/1/6
f 316/2/6 303/2/6 317/2/6
f 304/3/6 289/3/6 318/3/6
f 317/1/6 304/1/6 318/1/6
f 289/1/6 290/1/6 319/1/6
f 318/3/6 289/3/6 319/3/6
f 290/2/6 291/2/6 320/2/6
f 319/1/6 290/1/6 320/1/6
f 291/1/6 292/1/6 321/1/6
f 320/2/6 291/2/6 321/2/6
f 292/2/6 305/2/6 322/2/6
f 321/1/6 292/1/6 322/1/6
f 305/1/6 306/1/6 323/1/6
f 322/2/6 305/2/6 323/2/6
f 323/1/6 306/1/6 324/1/6
f 307/2/6 308/2/6 325/2/6
f 311/2/6 312/2/6 325/2/6
f 308/2/6 309/2/6 325/2/6
f 310/2/6 311/2/6 325/2/6
f 309/2/6 310/2/6 325/2/6
f 325/2/6 312/2/6 326/2/6
f 326/2/6 312/2/6 327/2/6
f 327/2/6 312/2/6 328/2/6
f 328/2/6 312/2/6 329/2/6
f 312/3/6 313/3/6 330/3/6
f 329/2/6 312/2/6 330/2/6
f 314/2/6 315/2/6 331/2/6
f 330/3/6 313/3/6 331/3/6
f 313/2/6 314/2/6 331/2/6
f 316/2/6 317/2/6 331/2/6
f 317/2/6 318/2/6 331/2/6
f 315/2/6 316/2/6 331/2/6
f 331/2/6 318/2/6 332/2/6
f 332/2/6 318/2/6 333/2/6
f 333/2/6 318/2/6 334/2/6
f 334/2/6 318/2/6 335/2/6
f 318/3/6 319/3/6 336/3/6
f 335/2/6 318/2/6 336/2/6
f 323/2/6 324/2/6 337/2/6
f 336/3/6 319/3/6 337/3/6
f 322/2/6 323/2/6 337/2/6
f 321/2/6 322/2/6 337/2/6
f 319/2/6 320/2/6 337/2/6
f 320/2/6 321/2/6 337/2/6
f 337/2/6 324/2/6 338/2/6
f 338/2/6 324/2/6 339/2/6
f 339/2/6 324/2/6 340/2/6
f 340/2/6 324/2/6 341/2/6
f 341/2/6 324/2/6 342/2/6
f 325/1/6 326/1/6 343/1/6
f 326/2/6 327/2/6 344/2/6
f 343/1/6 326/1/6 344/1/6
f 331/1/6 332/1/6 345/1/6
f 330/3/6 331/3/6 345/3/6
f 332/2/6 333/2/6 346/2/6
f 345/1/6 332/1/6 346/1/6
f 336/3/6 337/3/6 347/3/6
f 337/1/6 338/1/6 347/1/6
f 338/2/6 339/2/6 348/2/6
f 347/1/6 338/1/6 348/1/6
f 343/2/6 344/2/6 349/2/6
f 344/2/6 327/2/6 350/2/6
f 349/2/6 344/2/6 350/2/6
f 330/3/6 345/3/6 351/3/6
f 345/2/6 346/2/6 351/2/6
f 346/2/6 333/2/6 352/2/6
f 351/2/6 346/2/6 352/2/6
f 336/3/6 347/3/6 353/3/6
f 347/2/6 348/2/6 353/2/6
f 348/2/6 339/2/6 354/2/6
f 353/2/6 348/2/6 354/2/6
f 349/1/6 350/1/6 355/1/6
f 350/2/6 327/2/6 356/2/6
f 355/1/6 350/1/6 356/1/6
f 327/1/6 328/1/6 357/1/6
f 356/2/6 327/2/6 357/2/6
f 328/2/6 329/2/6 358/2/6
f 357/1/6 328/1/6 358/1/6
f 329/1/6 330/1/6 359/1/6
f 358/2/6 329/2/6 359/2/6
f 330/3/6 351/3/6 360/3/6
f 359/1/6 330/1/6 360/1/6
f 351/1/6 352/1/6 361/1/6
f 360/3/6 351/3/6 361/3/6
f 352/2/6 333/2/6 362/2/6
f 361/1/6 352/1/6 362/1/6
f 333/1/6 334/1/6 363/1/6
f 362/2/6 333/2/6 363/2/6
f 334/2/6 335/2/6 364/2/6
f 363/1/6 334/1/6 364/1/6
f 335/1/6 336/1/6 365/1/6
f 364/2/6 335/2/6 365/2/6
f 336/3/6 353/3/6 366/3/6
f 365/1/6 336/1/6 366/1/6
f 353/1/6 354/1/6 367/1/6
f 366/3/6 353/3/6 367/3/6
f 354/2/6 339/2/6 368/2/6
f 367/1/6 354/1/6 368/1/6
f 339/1/6 340/1/6 369/1/6
f 368/2/6 339/2/6 369/2/6
f 340/2/6 341/2/6 370/2/6
f 369/1/6 340/1/6 370/1/6
f 341/1/6 342/1/6 371/1/6
f 370/2/6 341/2/6 371/2/6
f 371/1/6 342/1/6 372/1/6
f 357/3/6 358/3/6 373/3/6
f 363/3/6 364/3/6 373/3/6
f 371/3/6 372/3/6 373/3/6
f 370/3/6 371/3/6 373/3/6
f 365/3/6 366/3/6 373/3/6
f 359/3/6 360/3/6 373/3/6
f 369/3/6 370/3/6 373/3/6
f 368/3/6 369/3/6 373/3/6
f 367/3/6 368/3/6 373/3/6
f 360/3/6 361/3/6 373/3/6
f 366/3/6 367/3/6 373/3/6
f 358/3/6 359/3/6 373/3/6
f 356/3/6 357/3/6 373/3/6
f 364/3/6 365/3/6 373/3/6
f 355/3/6 356/3/6 373/3/6
f 362/3/6 363/3/6 373/3/6
f 361/3/6 362/3/6 373/3/6
f 373/3/6 372/3/6 374/3/6
f 374/3/6 372/3/6 375/3/6
f 375/3/6 372/3/6 376/3/6
f 376/3/6 372/3/6 377/3/6
f 377/3/6 372/3/6 378/3/6
f 378/3/6 372/3/6 379/3/6
f 379/3/6 372/3/6 380/3/6
f 380/3/6 372/3/6 381/3/6
f 381/3/6 372/3/6 382/3/6
f 382/3/6 372/3/6 383/3/6
f 383/3/6 372/3/6 384/3/6
f 384/3/6 372/3/6 385/3/6
f 385/3/6 372/3/6 386/3/6
f 386/3/6 372/3/6 387/3/6
f 387/3/6 372/3/6 388/3/6
f 388/3/6 372/3/6 389/3/6
f 389/3/6 372/3/6 390/3/6
f 376/2/6 377/2/6 391/2/6
f 377/1/6 378/1/6 391/1/6
f 378/3/6 379/3/6 392/3/6
f 391/1/6 378/1/6 392/1/6
f 382/2/6 383/2/6 393/2/6
f 383/1/6 384/1/6 393/1/6
f 384/3/6 385/3/6 394/3/6
f 393/1/6 384/1/6 394/1/6
f 389/1/6 390/1/6 395/1/6
f 388/2/6 389/2/6 395/2/6
f 395/1/6 390/1/6 396/1/6
f 376/2/6 391/2/6 397/2/6
f 391/2/6 392/2/6 397/2/6
f 392/3/6 379/3/6 398/3/6
f 397/2/6 392/2/6 398/2/6
f 382/2/6 393/2/6 399/2/6
f 393/2/6 394/2/6 399/2/6
f 394/3/6 385/3/6 400/3/6
f 399/2/6 394/2/6 400/2/6
f 395/2/6 396/2/6 401/2/6
f 388/2/6 395/2/6 401/2/6
f 401/2/6 396/2/6 402/2/6
f 373/1/6 374/1/6 403/1/6
f 374/2/6 375/2/6 404/2/6
f 403/1/6 374/1/6 404/1/6
f 375/1/6 376/1/6 405/1/6
f 404/2/6 375/2/6 405/2/6
f 376/2/6 397/2/6 406/2/6
f 405/1/6 376/1/6 406/1/6
f 397/1/6 398/1/6 407/1/6
f 406/2/6 397/2/6 407/2/6
f 398/3/6 379/3/6 408/3/6
f 407/1/6 398/1/6 408/1/6
f 379/1/6 380/1/6 409/1/6
f 408/3/6 379/3/6 409/3/6
f 380/2/6 381/2/6 410/2/6
f 409/1/6 380/1/6 410/1/6
f 381/1/6 382/1/6 411/1/6
f 410/2/6 381/2/6 411/2/6
f 382/2/6 399/2/6 412/2/6
f 411/1/6 382/1/6 412/1/6
f 399/1/6 400/1/6 413/1/6
f 412/2/6 399/2/6 413/2/6
f 400/3/6 385/3/6 414/3/6
f 413/1/6 400/1/6 414/1/6
f 385/1/6 386/1/6 415/1/6
f 414/3/6 385/3/6 415/3/6
f 386/2/6 387/2/6 416/2/6
f 415/1/6 386/1/6 416/1/6
f 387/1/6 388/1/6 417/1/6
f 416/2/6 387/2/6 417/2/6
f 388/2/6 401/2/6 418/2/6
f 417/1/6 388/1/6 418/1/6
f 401/1/6 402/1/6 419/1/6
f 418/2/6 401/2/6 419/2/6
f 419/1/6 402/1/6 420/1/6
f 403/2/6 404/2/6 421/2/6
f 407/2/6 408/2/6 421/2/6
f 404/2/6 405/2/6 421/2/6
f 406/2/6 407/2/6 421/2/6
f 405/2/6 406/2/6 421/2/6
f 421/2/6 408/2/6 422/2/6
f 422/2/6 408/2/6 423/2/6
f 423/2/6 408/2/6 424/2/6
f 424/2/6 408/2/6 425/2/6
f 408/3/6 409/3/6 426/3/6
f 425/2/6 408/2/6 426/2/6
f 410/2/6 411/2/6 427/2/6
f 426/3/6 409/3/6 427/3/6
f 409/2/6 410/2/6 427/2/6
f 412/2/6 413/2/6 427/2/6
f 413/2/6 414/2/6 427/2/6
f 411/2/6 412/2/6 427/2/6
f 427/2/6 414/2/6 428/2/6
f 428/2/6 414/2/6 429/2/6
f 429/2/6 414/2/6 430/2/6
f 430/2/6 414/2/6 431/2/6
f 414/3/6 415/3/6 432/3/6
f 431/2/6 414/2/6 432/2/6
f 419/2/6 420/2/6 433/2/6
f 432/3/6 415/3/6 433/3/6
f 418/2/6 419/2/6 433/2/6
f 417/2/6 418/2/6 433/2/6
f 415/2/6 416/2/6 433/2/6
f 416/2/6 417/2/6 433/2/6
f 433/2/6 420/2/6 434/2/6
f 434/2/6 420/2/6 435/2/6
f 435/2/6 420/2/6 436/2/6
f 436/2/6 420/2/6 437/2/6
f 437/2/6 420/2/6 438/2/6
f 421/1/6 422/1/6 439/1/6
f 422/2/6 423/2/6 440/2/6
f 439/1/6 422/1/6 440/1/6
f 427/1/6 428/1/6 441/1/6
f 426/3/6 427/3/6 441/3/6
f 428/2/6 429/2/6 442/2/6
f 441/1/6 428/1/6 442/1/6
f 432/3/6 433/3/6 443/3/6
f 433/1/6 434/1/6 443/1/6
f 434/2/6 435/2/6 444/2/6
f 443/1/6 434/1/6 444/1/6
f 439/2/6 440/2/6 445/2/6
f 440/2/6 423/2/6 446/2/6
f 445/2/6 440/2/6 446/2/6
f 426/3/6 441/3/6 447/3/6
f 441/2/6 442/2/6 447/2/6
f 442/2/6 429/2/6 448/2/6
f 447/2/6 442/2/6 448/2/6
f 432/3/6 443/3/6 449/3/6
f 443/2/6 444/2/6 449/2/6
f 444/2/6 435/2/6 450/2/6
f 449/2/6 444/2/6 450/2/6
f 445/1/6 446/1/6 451/1/6
f 446/2/6 423/2/6 452/2/6
f 451/1/6 446/1/6 452/1/6
f 423/1/6 424/1/6 453/1/6
f 452/2/6 423/2/6 453/2/6
f 424/2/6 425/2/6 454/2/6
f 453/1/6 424/1/6 454/1/6
f 425/1/6 426/1/6 455/1/6
f 454/2/6 425/2/6 455/2/6
f 426/3/6 447/3/6 456/3/6
f 455/1/6 426/1/6 456/1/6
f 447/1/6 448/1/6 457/1/6
f 456/3/6 447/3/6 457/3/6
f 448/2/6 429/2/6 458/2/6
f 457/1/6 448/1/6 458/1/6
f 429/1/6 430/1/6 459/1/6
f 458/2/6 429/2/6 459/2/6
f 430/2/6 431/2/6 460/2/6
f 459/1/6 430/1/6 460/1/6
f 431/1/6 432/1/6 461/1/6
f 460/2/6 431/2/6 461/2/6
f 432/3/6 449/3/6 462/3/6
f 461/1/6 432/1/6 462/1/6
f 449/1/6 450/1/6 463/1/6
f 462/3/6 449/3/6 463/3/6
f 450/2/6 435/2/6 464/2/6
f 463/1/6 450/1/6 464/1/6
f 435/1/6 436/1/6 465/1/6
f 464/2/6 435/2/6 465/2/6
f 436/2/6 437/2/6 466/2/6
f 465/1/6 436/1/6 466/1/6
f 437/1/6 438/1/6 467/1/6
f 466/2/6 437/2/6 467/2/6
f 467/1/6 438/1/6 468/1/6
